# MagicaVoxel @ Ephtracy

# group
o 

# material
mtllib Tile_002.mtl
usemtl palette

# normals
vn -1 0 0
vn 1 0 0
vn 0 0 1
vn 0 0 -1
vn 0 -1 0
vn 0 1 0

# texcoords
vt 0.00195313 0.5
vt 0.0644531 0.5
vt 0.119141 0.5
vt 0.232422 0.5
vt 0.884766 0.5
vt 0.888672 0.5
vt 0.892578 0.5

# verts
v -0.5 0 0.5
v -0.5 0 -0.5
v -0.5 0.1 -0.1
v -0.5 0.1 -0.3
v -0.5 0.2 -0.1
v -0.5 0.2 -0.3
v -0.5 0.3 0.3
v -0.5 0.3 0.1
v -0.5 0.4 0.4
v -0.5 0.4 0.3
v -0.5 0.4 0.1
v -0.5 0.5 0.1
v -0.5 0.5 0
v -0.5 0.5 -0.3
v -0.5 0.5 -0.4
v -0.5 0.6 0.5
v -0.5 0.6 0.4
v -0.5 0.6 0.2
v -0.5 0.6 0.1
v -0.5 0.6 -0.2
v -0.5 0.6 -0.3
v -0.5 0.7 0.3
v -0.5 0.7 0.2
v -0.5 0.7 0
v -0.5 0.7 -0.2
v -0.5 0.7 -0.4
v -0.5 0.7 -0.5
v -0.5 0.9 -0.3
v -0.5 0.9 -0.4
v -0.5 1 0.5
v -0.5 1 -0.3
v -0.5 1 -0.4
v -0.5 1 -0.5
v 0.5 0 0.5
v 0.5 0 -0.5
v 0.5 0.1 -0.1
v 0.5 0.1 -0.3
v 0.5 0.2 -0.1
v 0.5 0.2 -0.3
v 0.5 0.3 0.2
v 0.5 0.3 0
v 0.5 0.4 0.2
v 0.5 0.4 0
v 0.5 0.5 0.3
v 0.5 0.5 0.2
v 0.5 0.5 -0.1
v 0.5 0.5 -0.2
v 0.5 0.6 0.2
v 0.5 0.6 0
v 0.5 0.6 -0.2
v 0.5 0.6 -0.5
v 0.5 0.7 0.5
v 0.5 0.7 0.3
v 0.5 0.7 0
v 0.5 0.7 -0.1
v 0.5 1 0.5
v 0.5 1 -0.5
v -0.5 0 0.5
v -0.5 0.6 0.5
v -0.5 1 0.5
v -0.4 0.6 0.5
v -0.4 0.7 0.5
v -0.3 0.2 0.5
v -0.3 0.4 0.5
v -0.3 0.5 0.5
v -0.3 0.7 0.5
v -0.2 0.5 0.5
v -0.2 0.6 0.5
v -0.1 0.6 0.5
v -0.1 0.7 0.5
v 0 0.2 0.5
v 0 0.4 0.5
v 0 0.7 0.5
v 0.1 0.4 0.5
v 0.1 0.5 0.5
v 0.2 0.1 0.5
v 0.2 0.2 0.5
v 0.2 0.5 0.5
v 0.2 0.7 0.5
v 0.4 0.1 0.5
v 0.4 0.2 0.5
v 0.5 0 0.5
v 0.5 0.7 0.5
v 0.5 1 0.5
v -0.5 0 -0.5
v -0.5 0.7 -0.5
v -0.5 1 -0.5
v -0.4 0.3 -0.5
v -0.4 0.5 -0.5
v -0.4 0.6 -0.5
v -0.4 0.7 -0.5
v -0.4 0.9 -0.5
v -0.4 1 -0.5
v -0.3 0.5 -0.5
v -0.3 0.6 -0.5
v -0.3 0.9 -0.5
v -0.3 1 -0.5
v -0.2 0.3 -0.5
v -0.2 0.5 -0.5
v -0.2 0.7 -0.5
v 0 0.5 -0.5
v 0 0.7 -0.5
v 0.2 0.3 -0.5
v 0.2 0.4 -0.5
v 0.2 0.5 -0.5
v 0.2 0.6 -0.5
v 0.3 0.6 -0.5
v 0.3 0.7 -0.5
v 0.4 0.3 -0.5
v 0.4 0.4 -0.5
v 0.4 0.6 -0.5
v 0.4 0.7 -0.5
v 0.5 0 -0.5
v 0.5 0.6 -0.5
v 0.5 1 -0.5
v -0.5 0 0.5
v 0.5 0 0.5
v -0.5 0 -0.5
v 0.5 0 -0.5
v -0.5 1 0.5
v 0.5 1 0.5
v -0.3 1 0.3
v -0.2 1 0.3
v 0 1 0.3
v 0.1 1 0.3
v -0.1 1 0.2
v 0 1 0.2
v 0.1 1 0.2
v 0.2 1 0.2
v 0.3 1 0.2
v 0.4 1 0.2
v -0.3 1 0.1
v -0.2 1 0.1
v -0.1 1 0.1
v 0 1 0.1
v 0.1 1 0.1
v 0.2 1 0.1
v 0.3 1 0.1
v -0.2 1 0
v -0.1 1 0
v 0 1 0
v 0.1 1 0
v 0.2 1 0
v 0.3 1 0
v 0.4 1 0
v -0.2 1 -0.1
v -0.1 1 -0.1
v 0 1 -0.1
v 0.1 1 -0.1
v 0.2 1 -0.1
v -0.4 1 -0.2
v -0.3 1 -0.2
v 0 1 -0.2
v 0.1 1 -0.2
v 0.2 1 -0.2
v 0.3 1 -0.2
v -0.5 1 -0.3
v -0.4 1 -0.3
v -0.3 1 -0.3
v -0.2 1 -0.3
v 0.2 1 -0.3
v 0.3 1 -0.3
v -0.5 1 -0.4
v -0.4 1 -0.4
v -0.3 1 -0.4
v -0.2 1 -0.4
v -0.5 1 -0.5
v -0.4 1 -0.5
v -0.3 1 -0.5
v 0.5 1 -0.5

# faces
f 3/4/1 2/4/1 1/4/1
f 4/4/1 2/4/1 3/4/1
f 5/4/1 3/4/1 1/4/1
f 5/2/1 4/2/1 3/2/1
f 6/4/1 2/4/1 4/4/1
f 6/2/1 4/2/1 5/2/1
f 7/4/1 5/4/1 1/4/1
f 7/4/1 6/4/1 5/4/1
f 8/4/1 6/4/1 7/4/1
f 9/4/1 7/4/1 1/4/1
f 10/2/1 8/2/1 7/2/1
f 10/4/1 7/4/1 9/4/1
f 11/4/1 6/4/1 8/4/1
f 11/2/1 8/2/1 10/2/1
f 12/4/1 11/4/1 10/4/1
f 12/4/1 6/4/1 11/4/1
f 13/4/1 6/4/1 12/4/1
f 14/4/1 2/4/1 6/4/1
f 14/4/1 6/4/1 13/4/1
f 15/4/1 2/4/1 14/4/1
f 16/4/1 9/4/1 1/4/1
f 17/6/1 10/6/1 9/6/1
f 17/4/1 9/4/1 16/4/1
f 18/4/1 12/4/1 10/4/1
f 19/6/1 13/6/1 12/6/1
f 19/4/1 12/4/1 18/4/1
f 20/4/1 14/4/1 13/4/1
f 21/6/1 15/6/1 14/6/1
f 21/4/1 14/4/1 20/4/1
f 22/4/1 18/4/1 10/4/1
f 22/6/1 10/6/1 17/6/1
f 22/6/1 17/6/1 16/6/1
f 23/6/1 19/6/1 18/6/1
f 23/4/1 18/4/1 22/4/1
f 24/6/1 13/6/1 19/6/1
f 24/6/1 19/6/1 23/6/1
f 24/4/1 20/4/1 13/4/1
f 25/6/1 21/6/1 20/6/1
f 25/4/1 20/4/1 24/4/1
f 26/6/1 15/6/1 21/6/1
f 26/6/1 21/6/1 25/6/1
f 26/4/1 2/4/1 15/4/1
f 27/4/1 2/4/1 26/4/1
f 28/6/1 25/6/1 24/6/1
f 28/6/1 24/6/1 23/6/1
f 28/6/1 27/6/1 26/6/1
f 28/6/1 26/6/1 25/6/1
f 28/6/1 23/6/1 22/6/1
f 29/6/1 27/6/1 28/6/1
f 30/6/1 22/6/1 16/6/1
f 30/6/1 28/6/1 22/6/1
f 31/3/1 29/3/1 28/3/1
f 31/6/1 28/6/1 30/6/1
f 32/6/1 27/6/1 29/6/1
f 32/3/1 29/3/1 31/3/1
f 33/6/1 27/6/1 32/6/1
f 34/4/2 35/4/2 36/4/2
f 36/4/2 35/4/2 37/4/2
f 34/4/2 36/4/2 38/4/2
f 36/2/2 37/2/2 38/2/2
f 37/4/2 35/4/2 39/4/2
f 38/2/2 37/2/2 39/2/2
f 34/4/2 38/4/2 40/4/2
f 38/4/2 39/4/2 40/4/2
f 40/4/2 39/4/2 41/4/2
f 34/4/2 40/4/2 42/4/2
f 40/2/2 41/2/2 42/2/2
f 41/4/2 39/4/2 43/4/2
f 42/2/2 41/2/2 43/2/2
f 34/4/2 42/4/2 44/4/2
f 42/4/2 43/4/2 44/4/2
f 44/4/2 43/4/2 45/4/2
f 43/4/2 39/4/2 46/4/2
f 45/4/2 43/4/2 46/4/2
f 46/4/2 39/4/2 47/4/2
f 44/6/2 45/6/2 48/6/2
f 45/4/2 46/4/2 48/4/2
f 48/4/2 46/4/2 49/4/2
f 47/4/2 39/4/2 50/4/2
f 46/6/2 47/6/2 50/6/2
f 39/4/2 35/4/2 51/4/2
f 50/4/2 39/4/2 51/4/2
f 34/4/2 44/4/2 52/4/2
f 48/6/2 49/6/2 53/6/2
f 52/4/2 44/4/2 53/4/2
f 44/6/2 48/6/2 53/6/2
f 49/4/2 46/4/2 54/4/2
f 53/6/2 49/6/2 54/6/2
f 46/6/2 50/6/2 55/6/2
f 54/4/2 46/4/2 55/4/2
f 50/6/2 51/6/2 55/6/2
f 53/6/2 54/6/2 56/6/2
f 52/6/2 53/6/2 56/6/2
f 54/6/2 55/6/2 56/6/2
f 55/6/2 51/6/2 57/6/2
f 56/6/2 55/6/2 57/6/2
f 61/4/3 59/4/3 58/4/3
f 61/6/3 60/6/3 59/6/3
f 62/6/3 60/6/3 61/6/3
f 63/4/3 61/4/3 58/4/3
f 63/4/3 62/4/3 61/4/3
f 64/4/3 62/4/3 63/4/3
f 65/4/3 62/4/3 64/4/3
f 66/6/3 60/6/3 62/6/3
f 66/4/3 62/4/3 65/4/3
f 67/4/3 65/4/3 64/4/3
f 67/6/3 66/6/3 65/6/3
f 68/6/3 66/6/3 67/6/3
f 69/4/3 68/4/3 67/4/3
f 69/6/3 66/6/3 68/6/3
f 70/6/3 60/6/3 66/6/3
f 70/6/3 66/6/3 69/6/3
f 71/4/3 63/4/3 58/4/3
f 71/2/3 64/2/3 63/2/3
f 72/4/3 69/4/3 67/4/3
f 72/2/3 64/2/3 71/2/3
f 72/4/3 70/4/3 69/4/3
f 72/4/3 67/4/3 64/4/3
f 73/6/3 60/6/3 70/6/3
f 73/4/3 70/4/3 72/4/3
f 74/4/3 72/4/3 71/4/3
f 74/6/3 73/6/3 72/6/3
f 75/6/3 73/6/3 74/6/3
f 76/4/3 71/4/3 58/4/3
f 76/4/3 74/4/3 71/4/3
f 76/4/3 75/4/3 74/4/3
f 77/4/3 75/4/3 76/4/3
f 78/6/3 73/6/3 75/6/3
f 78/4/3 75/4/3 77/4/3
f 79/6/3 60/6/3 73/6/3
f 79/6/3 73/6/3 78/6/3
f 80/2/3 77/2/3 76/2/3
f 80/4/3 76/4/3 58/4/3
f 81/4/3 78/4/3 77/4/3
f 81/2/3 77/2/3 80/2/3
f 81/4/3 79/4/3 78/4/3
f 82/4/3 80/4/3 58/4/3
f 82/4/3 81/4/3 80/4/3
f 83/6/3 60/6/3 79/6/3
f 83/4/3 81/4/3 82/4/3
f 83/4/3 79/4/3 81/4/3
f 84/6/3 60/6/3 83/6/3
f 85/4/4 86/4/4 88/4/4
f 88/4/4 86/4/4 89/4/4
f 89/4/4 86/4/4 90/4/4
f 86/6/4 87/6/4 91/6/4
f 90/4/4 86/4/4 91/4/4
f 91/6/4 87/6/4 92/6/4
f 92/6/4 87/6/4 93/6/4
f 89/4/4 90/4/4 94/4/4
f 88/2/4 89/2/4 94/2/4
f 90/6/4 91/6/4 95/6/4
f 94/4/4 90/4/4 95/4/4
f 91/6/4 92/6/4 95/6/4
f 92/3/4 93/3/4 96/3/4
f 95/6/4 92/6/4 96/6/4
f 96/3/4 93/3/4 97/3/4
f 85/4/4 88/4/4 98/4/4
f 88/2/4 94/2/4 98/2/4
f 94/6/4 95/6/4 99/6/4
f 98/2/4 94/2/4 99/2/4
f 96/6/4 97/6/4 99/6/4
f 95/6/4 96/6/4 99/6/4
f 99/6/4 97/6/4 100/6/4
f 98/4/4 99/4/4 101/4/4
f 99/4/4 100/4/4 101/4/4
f 100/6/4 97/6/4 102/6/4
f 101/4/4 100/4/4 102/4/4
f 85/4/4 98/4/4 103/4/4
f 98/4/4 101/4/4 103/4/4
f 103/4/4 101/4/4 104/4/4
f 101/6/4 102/6/4 105/6/4
f 104/4/4 101/4/4 105/4/4
f 105/6/4 102/6/4 106/6/4
f 104/4/4 105/4/4 107/4/4
f 106/6/4 102/6/4 107/6/4
f 105/4/4 106/4/4 107/4/4
f 102/6/4 97/6/4 108/6/4
f 107/6/4 102/6/4 108/6/4
f 103/2/4 104/2/4 109/2/4
f 85/4/4 103/4/4 109/4/4
f 104/4/4 107/4/4 110/4/4
f 109/2/4 104/2/4 110/2/4
f 107/4/4 108/4/4 110/4/4
f 110/4/4 108/4/4 111/4/4
f 108/6/4 97/6/4 112/6/4
f 111/4/4 108/4/4 112/4/4
f 85/4/4 109/4/4 113/4/4
f 110/4/4 111/4/4 113/4/4
f 109/4/4 110/4/4 113/4/4
f 111/6/4 112/6/4 114/6/4
f 113/4/4 111/4/4 114/4/4
f 112/6/4 97/6/4 115/6/4
f 114/6/4 112/6/4 115/6/4
f 118/4/5 117/4/5 116/4/5
f 119/4/5 117/4/5 118/4/5
f 120/6/6 121/6/6 122/6/6
f 122/6/6 121/6/6 123/6/6
f 123/6/6 121/6/6 124/6/6
f 124/6/6 121/6/6 125/6/6
f 123/6/6 124/6/6 126/6/6
f 124/3/6 125/3/6 127/3/6
f 126/6/6 124/6/6 127/6/6
f 125/6/6 121/6/6 128/6/6
f 127/3/6 125/3/6 128/3/6
f 128/6/6 121/6/6 129/6/6
f 129/6/6 121/6/6 130/6/6
f 130/6/6 121/6/6 131/6/6
f 120/6/6 122/6/6 132/6/6
f 122/5/6 123/5/6 132/5/6
f 123/6/6 126/6/6 133/6/6
f 132/5/6 123/5/6 133/5/6
f 126/1/6 127/1/6 134/1/6
f 133/6/6 126/6/6 134/6/6
f 127/3/6 128/3/6 135/3/6
f 134/1/6 127/1/6 135/1/6
f 128/1/6 129/1/6 136/1/6
f 135/3/6 128/3/6 136/3/6
f 129/6/6 130/6/6 137/6/6
f 136/1/6 129/1/6 137/1/6
f 130/5/6 131/5/6 138/5/6
f 137/6/6 130/6/6 138/6/6
f 132/6/6 133/6/6 139/6/6
f 133/3/6 134/3/6 139/3/6
f 134/3/6 135/3/6 139/3/6
f 139/3/6 135/3/6 140/3/6
f 135/1/6 136/1/6 141/1/6
f 140/3/6 135/3/6 141/3/6
f 136/3/6 137/3/6 142/3/6
f 141/1/6 136/1/6 142/1/6
f 137/3/6 138/3/6 142/3/6
f 142/3/6 138/3/6 143/3/6
f 138/5/6 131/5/6 144/5/6
f 143/3/6 138/3/6 144/3/6
f 131/6/6 121/6/6 145/6/6
f 144/5/6 131/5/6 145/5/6
f 132/6/6 139/6/6 146/6/6
f 139/5/6 140/5/6 146/5/6
f 140/1/6 141/1/6 147/1/6
f 146/5/6 140/5/6 147/5/6
f 141/3/6 142/3/6 148/3/6
f 147/1/6 141/1/6 148/1/6
f 142/1/6 143/1/6 149/1/6
f 148/3/6 142/3/6 149/3/6
f 143/6/6 144/6/6 150/6/6
f 149/1/6 143/1/6 150/1/6
f 144/6/6 145/6/6 150/6/6
f 132/6/6 146/6/6 151/6/6
f 147/6/6 148/6/6 151/6/6
f 120/6/6 132/6/6 151/6/6
f 146/6/6 147/6/6 151/6/6
f 151/6/6 148/6/6 152/6/6
f 148/3/6 149/3/6 153/3/6
f 152/6/6 148/6/6 153/6/6
f 149/6/6 150/6/6 154/6/6
f 153/3/6 149/3/6 154/3/6
f 150/6/6 145/6/6 155/6/6
f 154/6/6 150/6/6 155/6/6
f 155/6/6 145/6/6 156/6/6
f 120/6/6 151/6/6 157/6/6
f 151/3/6 152/3/6 158/3/6
f 157/6/6 151/6/6 158/6/6
f 153/6/6 154/6/6 159/6/6
f 158/3/6 152/3/6 159/3/6
f 152/6/6 153/6/6 159/6/6
f 154/6/6 155/6/6 159/6/6
f 159/6/6 155/6/6 160/6/6
f 155/5/6 156/5/6 161/5/6
f 160/6/6 155/6/6 161/6/6
f 156/6/6 145/6/6 162/6/6
f 161/5/6 156/5/6 162/5/6
f 157/3/6 158/3/6 163/3/6
f 158/1/6 159/1/6 164/1/6
f 163/3/6 158/3/6 164/3/6
f 159/3/6 160/3/6 165/3/6
f 164/1/6 159/1/6 165/1/6
f 160/6/6 161/6/6 166/6/6
f 165/3/6 160/3/6 166/3/6
f 161/6/6 162/6/6 166/6/6
f 163/6/6 164/6/6 167/6/6
f 164/3/6 165/3/6 168/3/6
f 167/6/6 164/6/6 168/6/6
f 165/6/6 166/6/6 169/6/6
f 168/3/6 165/3/6 169/3/6
f 162/6/6 145/6/6 170/6/6
f 169/6/6 166/6/6 170/6/6
f 166/6/6 162/6/6 170/6/6
f 145/6/6 121/6/6 170/6/6
