# MagicaVoxel @ Ephtracy

# group
o 

# material
mtllib Monster.mtl
usemtl palette

# normals
vn -1 0 0
vn 1 0 0
vn 0 0 1
vn 0 0 -1
vn 0 -1 0
vn 0 1 0

# texcoords
vt 0.841797 0.5
vt 0.900391 0.5
vt 0.923828 0.5
vt 0.982422 0.5

# verts
v -0.4 0 0.5
v -0.4 0 -0.4
v -0.4 0.1 0.4
v -0.4 0.1 -0.3
v -0.4 0.2 0.4
v -0.4 0.2 -0.3
v -0.4 0.3 0.5
v -0.4 0.3 -0.4
v -0.3 0.1 0.4
v -0.3 0.1 -0.3
v -0.3 0.2 0.4
v -0.3 0.2 -0.3
v -0.2 0.2 0.4
v -0.2 0.2 -0.3
v -0.2 0.4 0.4
v -0.2 0.4 0.2
v -0.2 0.4 -0.1
v -0.2 0.4 -0.3
v -0.2 0.5 0.2
v -0.2 0.5 -0.1
v -0.1 0.4 0.4
v -0.1 0.4 0.2
v -0.1 0.4 -0.1
v -0.1 0.4 -0.3
v -0.1 0.5 0.4
v -0.1 0.5 0.2
v -0.1 0.5 -0.1
v -0.1 0.5 -0.3
v -0.1 0.6 0.2
v -0.1 0.6 -0.1
v 0.1 0 -0.3
v 0.1 0 -0.4
v 0.1 0.1 -0.3
v 0.1 0.1 -0.4
v 0.3 0 0.5
v 0.3 0 0.4
v 0.3 0.1 -0.3
v 0.3 0.1 -0.4
v 0.3 0.2 0.4
v 0.3 0.2 -0.3
v 0.3 0.3 0.5
v 0.3 0.3 -0.4
v -0.3 0 0.5
v -0.3 0 0.4
v -0.3 0.1 -0.3
v -0.3 0.1 -0.4
v -0.3 0.2 0.4
v -0.3 0.2 -0.3
v -0.3 0.3 0.5
v -0.3 0.3 -0.4
v -0.1 0 -0.3
v -0.1 0 -0.4
v -0.1 0.1 -0.3
v -0.1 0.1 -0.4
v 0.1 0.4 0.4
v 0.1 0.4 0.2
v 0.1 0.4 -0.1
v 0.1 0.4 -0.3
v 0.1 0.5 0.4
v 0.1 0.5 0.2
v 0.1 0.5 -0.1
v 0.1 0.5 -0.3
v 0.1 0.6 0.2
v 0.1 0.6 -0.1
v 0.2 0.2 0.4
v 0.2 0.2 -0.3
v 0.2 0.4 0.4
v 0.2 0.4 0.2
v 0.2 0.4 -0.1
v 0.2 0.4 -0.3
v 0.2 0.5 0.2
v 0.2 0.5 -0.1
v 0.3 0.1 0.4
v 0.3 0.1 -0.3
v 0.3 0.2 0.4
v 0.3 0.2 -0.3
v 0.4 0 0.5
v 0.4 0 -0.4
v 0.4 0.1 0.4
v 0.4 0.1 -0.3
v 0.4 0.2 0.4
v 0.4 0.2 -0.3
v 0.4 0.3 0.5
v 0.4 0.3 -0.4
v -0.4 0 0.5
v -0.4 0.3 0.5
v -0.3 0 0.5
v -0.3 0.3 0.5
v 0.3 0 0.5
v 0.3 0.3 0.5
v 0.4 0 0.5
v 0.4 0.3 0.5
v -0.3 0 0.4
v -0.3 0.2 0.4
v -0.2 0.2 0.4
v -0.2 0.4 0.4
v -0.1 0.4 0.4
v -0.1 0.5 0.4
v 0.1 0.4 0.4
v 0.1 0.5 0.4
v 0.2 0.2 0.4
v 0.2 0.4 0.4
v 0.3 0 0.4
v 0.3 0.2 0.4
v -0.2 0.4 0.2
v -0.2 0.5 0.2
v -0.1 0.4 0.2
v -0.1 0.5 0.2
v -0.1 0.6 0.2
v 0.1 0.4 0.2
v 0.1 0.5 0.2
v 0.1 0.6 0.2
v 0.2 0.4 0.2
v 0.2 0.5 0.2
v -0.4 0.1 -0.3
v -0.4 0.2 -0.3
v -0.3 0.1 -0.3
v -0.3 0.2 -0.3
v 0.3 0.1 -0.3
v 0.3 0.2 -0.3
v 0.4 0.1 -0.3
v 0.4 0.2 -0.3
v -0.4 0.1 0.4
v -0.4 0.2 0.4
v -0.3 0.1 0.4
v -0.3 0.2 0.4
v 0.3 0.1 0.4
v 0.3 0.2 0.4
v 0.4 0.1 0.4
v 0.4 0.2 0.4
v -0.2 0.4 -0.1
v -0.2 0.5 -0.1
v -0.1 0.4 -0.1
v -0.1 0.5 -0.1
v -0.1 0.6 -0.1
v 0.1 0.4 -0.1
v 0.1 0.5 -0.1
v 0.1 0.6 -0.1
v 0.2 0.4 -0.1
v 0.2 0.5 -0.1
v -0.3 0.1 -0.3
v -0.3 0.2 -0.3
v -0.2 0.2 -0.3
v -0.2 0.4 -0.3
v -0.1 0 -0.3
v -0.1 0.1 -0.3
v -0.1 0.4 -0.3
v -0.1 0.5 -0.3
v 0.1 0 -0.3
v 0.1 0.1 -0.3
v 0.1 0.4 -0.3
v 0.1 0.5 -0.3
v 0.2 0.2 -0.3
v 0.2 0.4 -0.3
v 0.3 0.1 -0.3
v 0.3 0.2 -0.3
v -0.4 0 -0.4
v -0.4 0.3 -0.4
v -0.3 0 -0.4
v -0.3 0.1 -0.4
v -0.3 0.3 -0.4
v -0.1 0 -0.4
v -0.1 0.1 -0.4
v 0.1 0 -0.4
v 0.1 0.1 -0.4
v 0.3 0 -0.4
v 0.3 0.1 -0.4
v 0.3 0.3 -0.4
v 0.4 0 -0.4
v 0.4 0.3 -0.4
v -0.4 0 0.5
v -0.3 0 0.5
v 0.3 0 0.5
v 0.4 0 0.5
v -0.3 0 0.4
v 0.3 0 0.4
v -0.3 0 -0.3
v -0.1 0 -0.3
v 0.1 0 -0.3
v 0.3 0 -0.3
v -0.4 0 -0.4
v -0.3 0 -0.4
v -0.1 0 -0.4
v 0.1 0 -0.4
v 0.3 0 -0.4
v 0.4 0 -0.4
v -0.4 0.2 0.4
v -0.3 0.2 0.4
v 0.3 0.2 0.4
v 0.4 0.2 0.4
v -0.4 0.2 -0.3
v -0.3 0.2 -0.3
v 0.3 0.2 -0.3
v 0.4 0.2 -0.3
v -0.4 0.1 0.4
v -0.3 0.1 0.4
v 0.3 0.1 0.4
v 0.4 0.1 0.4
v -0.4 0.1 -0.3
v -0.3 0.1 -0.3
v -0.1 0.1 -0.3
v 0.1 0.1 -0.3
v 0.3 0.1 -0.3
v 0.4 0.1 -0.3
v -0.3 0.1 -0.4
v -0.1 0.1 -0.4
v 0.1 0.1 -0.4
v 0.3 0.1 -0.4
v -0.3 0.2 0.4
v -0.2 0.2 0.4
v 0.2 0.2 0.4
v 0.3 0.2 0.4
v -0.3 0.2 -0.3
v -0.2 0.2 -0.3
v 0.2 0.2 -0.3
v 0.3 0.2 -0.3
v -0.4 0.3 0.5
v -0.3 0.3 0.5
v 0.3 0.3 0.5
v 0.4 0.3 0.5
v -0.4 0.3 -0.4
v -0.3 0.3 -0.4
v 0.3 0.3 -0.4
v 0.4 0.3 -0.4
v -0.2 0.4 0.4
v -0.1 0.4 0.4
v 0.1 0.4 0.4
v 0.2 0.4 0.4
v -0.2 0.4 0.2
v -0.1 0.4 0.2
v 0.1 0.4 0.2
v 0.2 0.4 0.2
v -0.2 0.4 -0.1
v -0.1 0.4 -0.1
v 0.1 0.4 -0.1
v 0.2 0.4 -0.1
v -0.2 0.4 -0.3
v -0.1 0.4 -0.3
v 0.1 0.4 -0.3
v 0.2 0.4 -0.3
v -0.1 0.5 0.4
v 0.1 0.5 0.4
v -0.2 0.5 0.2
v -0.1 0.5 0.2
v 0.1 0.5 0.2
v 0.2 0.5 0.2
v -0.2 0.5 -0.1
v -0.1 0.5 -0.1
v 0.1 0.5 -0.1
v 0.2 0.5 -0.1
v -0.1 0.5 -0.3
v 0.1 0.5 -0.3
v -0.1 0.6 0.2
v 0.1 0.6 0.2
v -0.1 0.6 -0.1
v 0.1 0.6 -0.1

# faces
f 3/4/1 2/4/1 1/4/1
f 4/4/1 2/4/1 3/4/1
f 5/4/1 3/4/1 1/4/1
f 6/4/1 2/4/1 4/4/1
f 7/4/1 5/4/1 1/4/1
f 7/4/1 6/4/1 5/4/1
f 8/4/1 2/4/1 6/4/1
f 8/4/1 6/4/1 7/4/1
f 11/3/1 10/3/1 9/3/1
f 12/3/1 10/3/1 11/3/1
f 15/3/1 14/3/1 13/3/1
f 16/3/1 14/3/1 15/3/1
f 17/3/1 14/3/1 16/3/1
f 18/3/1 14/3/1 17/3/1
f 19/3/1 17/3/1 16/3/1
f 20/3/1 17/3/1 19/3/1
f 25/3/1 22/3/1 21/3/1
f 26/3/1 22/3/1 25/3/1
f 27/3/1 24/3/1 23/3/1
f 28/3/1 24/3/1 27/3/1
f 29/3/1 27/3/1 26/3/1
f 30/3/1 27/3/1 29/3/1
f 33/1/1 32/1/1 31/1/1
f 34/1/1 32/1/1 33/1/1
f 39/4/1 36/4/1 35/4/1
f 40/4/1 38/4/1 37/4/1
f 41/4/1 39/4/1 35/4/1
f 41/4/1 40/4/1 39/4/1
f 42/4/1 38/4/1 40/4/1
f 42/4/1 40/4/1 41/4/1
f 43/4/2 44/4/2 47/4/2
f 45/4/2 46/4/2 48/4/2
f 43/4/2 47/4/2 49/4/2
f 47/4/2 48/4/2 49/4/2
f 48/4/2 46/4/2 50/4/2
f 49/4/2 48/4/2 50/4/2
f 51/1/2 52/1/2 53/1/2
f 53/1/2 52/1/2 54/1/2
f 55/3/2 56/3/2 59/3/2
f 59/3/2 56/3/2 60/3/2
f 57/3/2 58/3/2 61/3/2
f 61/3/2 58/3/2 62/3/2
f 60/3/2 61/3/2 63/3/2
f 63/3/2 61/3/2 64/3/2
f 65/3/2 66/3/2 67/3/2
f 67/3/2 66/3/2 68/3/2
f 68/3/2 66/3/2 69/3/2
f 69/3/2 66/3/2 70/3/2
f 68/3/2 69/3/2 71/3/2
f 71/3/2 69/3/2 72/3/2
f 73/3/2 74/3/2 75/3/2
f 75/3/2 74/3/2 76/3/2
f 77/4/2 78/4/2 79/4/2
f 79/4/2 78/4/2 80/4/2
f 77/4/2 79/4/2 81/4/2
f 80/4/2 78/4/2 82/4/2
f 77/4/2 81/4/2 83/4/2
f 81/4/2 82/4/2 83/4/2
f 82/4/2 78/4/2 84/4/2
f 83/4/2 82/4/2 84/4/2
f 87/4/3 86/4/3 85/4/3
f 88/4/3 86/4/3 87/4/3
f 91/4/3 90/4/3 89/4/3
f 92/4/3 90/4/3 91/4/3
f 95/3/3 94/3/3 93/3/3
f 97/3/3 96/3/3 95/3/3
f 99/3/3 97/3/3 95/3/3
f 99/3/3 98/3/3 97/3/3
f 100/3/3 98/3/3 99/3/3
f 101/3/3 95/3/3 93/3/3
f 101/3/3 99/3/3 95/3/3
f 102/3/3 99/3/3 101/3/3
f 103/3/3 101/3/3 93/3/3
f 104/3/3 101/3/3 103/3/3
f 107/3/3 106/3/3 105/3/3
f 108/3/3 106/3/3 107/3/3
f 111/3/3 109/3/3 108/3/3
f 112/3/3 109/3/3 111/3/3
f 113/3/3 111/3/3 110/3/3
f 114/3/3 111/3/3 113/3/3
f 117/4/3 116/4/3 115/4/3
f 118/4/3 116/4/3 117/4/3
f 121/4/3 120/4/3 119/4/3
f 122/4/3 120/4/3 121/4/3
f 123/4/4 124/4/4 125/4/4
f 125/4/4 124/4/4 126/4/4
f 127/4/4 128/4/4 129/4/4
f 129/4/4 128/4/4 130/4/4
f 131/3/4 132/3/4 133/3/4
f 133/3/4 132/3/4 134/3/4
f 134/3/4 135/3/4 137/3/4
f 137/3/4 135/3/4 138/3/4
f 136/3/4 137/3/4 139/3/4
f 139/3/4 137/3/4 140/3/4
f 141/3/4 142/3/4 143/3/4
f 141/3/4 143/3/4 146/3/4
f 143/3/4 144/3/4 146/3/4
f 146/3/4 144/3/4 147/3/4
f 145/3/4 146/3/4 149/3/4
f 147/3/4 148/3/4 149/3/4
f 146/3/4 147/3/4 149/3/4
f 149/3/4 148/3/4 150/3/4
f 150/3/4 148/3/4 151/3/4
f 151/3/4 148/3/4 152/3/4
f 150/3/4 151/3/4 153/3/4
f 153/3/4 151/3/4 154/3/4
f 150/3/4 153/3/4 155/3/4
f 155/3/4 153/3/4 156/3/4
f 157/4/4 158/4/4 159/4/4
f 159/4/4 158/4/4 160/4/4
f 160/4/4 158/4/4 161/4/4
f 159/1/4 160/1/4 162/1/4
f 162/1/4 160/1/4 163/1/4
f 164/1/4 165/1/4 166/1/4
f 166/1/4 165/1/4 167/1/4
f 166/4/4 167/4/4 169/4/4
f 167/4/4 168/4/4 169/4/4
f 169/4/4 168/4/4 170/4/4
f 175/4/5 172/4/5 171/4/5
f 176/4/5 174/4/5 173/4/5
f 177/4/5 175/4/5 171/4/5
f 177/3/5 176/3/5 175/3/5
f 178/3/5 176/3/5 177/3/5
f 179/3/5 176/3/5 178/3/5
f 180/4/5 174/4/5 176/4/5
f 180/3/5 176/3/5 179/3/5
f 181/4/5 177/4/5 171/4/5
f 182/1/5 178/1/5 177/1/5
f 182/4/5 177/4/5 181/4/5
f 183/1/5 178/1/5 182/1/5
f 184/1/5 180/1/5 179/1/5
f 185/4/5 174/4/5 180/4/5
f 185/1/5 180/1/5 184/1/5
f 186/4/5 174/4/5 185/4/5
f 191/4/5 188/4/5 187/4/5
f 192/4/5 188/4/5 191/4/5
f 193/4/5 190/4/5 189/4/5
f 194/4/5 190/4/5 193/4/5
f 195/4/6 196/4/6 199/4/6
f 199/4/6 196/4/6 200/4/6
f 197/4/6 198/4/6 203/4/6
f 203/4/6 198/4/6 204/4/6
f 200/1/6 201/1/6 205/1/6
f 205/1/6 201/1/6 206/1/6
f 202/1/6 203/1/6 207/1/6
f 207/1/6 203/1/6 208/1/6
f 209/3/6 210/3/6 213/3/6
f 213/3/6 210/3/6 214/3/6
f 211/3/6 212/3/6 215/3/6
f 215/3/6 212/3/6 216/3/6
f 217/4/6 218/4/6 221/4/6
f 221/4/6 218/4/6 222/4/6
f 219/4/6 220/4/6 223/4/6
f 223/4/6 220/4/6 224/4/6
f 225/3/6 226/3/6 229/3/6
f 229/3/6 226/3/6 230/3/6
f 227/3/6 228/3/6 231/3/6
f 231/3/6 228/3/6 232/3/6
f 233/3/6 234/3/6 237/3/6
f 237/3/6 234/3/6 238/3/6
f 235/3/6 236/3/6 239/3/6
f 239/3/6 236/3/6 240/3/6
f 241/3/6 242/3/6 244/3/6
f 244/3/6 242/3/6 245/3/6
f 243/3/6 244/3/6 247/3/6
f 247/3/6 244/3/6 248/3/6
f 245/3/6 246/3/6 249/3/6
f 249/3/6 246/3/6 250/3/6
f 248/3/6 249/3/6 251/3/6
f 251/3/6 249/3/6 252/3/6
f 253/3/6 254/3/6 255/3/6
f 255/3/6 254/3/6 256/3/6
